<?xml version="1.0"?>
<svg version="1.1" xmlns="http://www.w3.org/2000/svg" width="400" height="200" style="border: dashed 2px #aaa"><path fill="#476a2e" d="M42.491,119.055l0,3.145l-11.766,0l0-3.145l2.775-0.999l-0.888-2.701l-8.214,0l-0.925,2.664l2.886,1.036l0,3.145l-11.174,0l0-3.145l2.701-1.036l8.14-21.793l5.92-0.111l7.955,21.904z M31.391,111.396l-2.775-8.769l-2.923,8.769l5.698,0z M45.98787,102.405l7.881-0.185l0.333,2.072s2.516-2.442,5.476-2.442c5.143,0,7.696,3.811,7.696,9.805c0,6.845-3.256,10.915-9.731,10.915c-1.073,0-2.183-0.148-3.145-0.37l0,4.699l3.515,0.851l0,2.96l-11.951,0l0-2.96l2.886-0.851l0-20.609l-2.96-0.925l0-2.96z M54.49787,108.325l0,9.435c0.592,0.259,1.48,0.555,2.886,0.555c3.182,0,4.255-2.22,4.255-5.994c0-3.737-0.999-6.031-3.7-6.031c-2.405,0-3.441,2.035-3.441,2.035z M72.16574,102.405l7.881-0.185l0.333,2.072s2.516-2.442,5.476-2.442c5.143,0,7.696,3.811,7.696,9.805c0,6.845-3.256,10.915-9.731,10.915c-1.073,0-2.183-0.148-3.145-0.37l0,4.699l3.515,0.851l0,2.96l-11.951,0l0-2.96l2.886-0.851l0-20.609l-2.96-0.925l0-2.96z M80.67574,108.325l0,9.435c0.592,0.259,1.48,0.555,2.886,0.555c3.182,0,4.255-2.22,4.255-5.994c0-3.737-0.999-6.031-3.7-6.031c-2.405,0-3.441,2.035-3.441,2.035z M116.95461,113.431l-12.284,0c0.222,2.96,1.924,4.699,4.477,4.699c3.071,0,6.216-1.739,6.216-1.739l1.591,3.071s-3.7,3.108-8.436,3.108c-6.364,0-9.62-3.7-9.62-9.99c0-6.475,3.663-10.73,9.879-10.73c5.513,0,8.399,3.404,8.399,8.695c0,1.406-0.222,2.775-0.222,2.886z M104.74461,109.99l6.697,0c0-2.109-0.888-3.7-3.034-3.7c-2.072,0-3.367,1.517-3.663,3.7z M135.47348,117.464l1.332,2.812c-1.813,1.332-3.885,2.294-6.29,2.294c-4.255,0-5.476-2.96-5.476-7.215l0-8.51l-3.441,0l0-3.589l3.441-0.481l0-5.106l5.55-0.999l0,6.105l5.18,0l0,4.07l-5.18,0l0,8.14c0,2.368,0.407,3.33,1.961,3.33c0.999,0,2.442-0.592,2.923-0.851z M143.33635,96.115c0-2.109,1.517-3.33,3.182-3.33c1.924,0,3.108,0.999,3.108,3.33c0,2.183-1.591,3.367-3.108,3.367c-1.998,0-3.182-1.184-3.182-3.367z M149.55235,118.315l2.59,0.925l0,2.96l-11.1,0l0-2.96l2.96-0.925l0-12.025l-2.96-0.925l0-2.96l8.51-0.185l0,16.095z M173.28822,105.661l-9.25,12.469l5.402,0l0.629-3.145l3.33,0l0,7.215l-16.095,0l0-3.404l9.398-12.506l-5.069,0l-0.555,2.701l-3.33,0l0-6.771l15.54,0l0,3.441z M196.43209,113.431l-12.284,0c0.222,2.96,1.924,4.699,4.477,4.699c3.071,0,6.216-1.739,6.216-1.739l1.591,3.071s-3.7,3.108-8.436,3.108c-6.364,0-9.62-3.7-9.62-9.99c0-6.475,3.663-10.73,9.879-10.73c5.513,0,8.399,3.404,8.399,8.695c0,1.406-0.222,2.775-0.222,2.886z M184.22209,109.99l6.697,0c0-2.109-0.888-3.7-3.034-3.7c-2.072,0-3.367,1.517-3.663,3.7z M209.58596,102.22l0.333,2.553s2.664-2.923,5.143-2.923c2.035,0,3.441,0.666,3.441,0.666l-0.296,7.104l-3.33,0l-0.555-3.145c-2.146,0-3.996,2.072-3.996,2.072l0,9.768l3.7,0.925l0,2.96l-12.21,0l0-2.96l2.96-0.925l0-12.025l-2.96-0.925l0-2.96z M221.99983,102.405l7.881-0.185l0.333,2.072s2.516-2.442,5.476-2.442c5.143,0,7.696,3.811,7.696,9.805c0,6.845-3.256,10.915-9.731,10.915c-1.073,0-2.183-0.148-3.145-0.37l0,4.699l3.515,0.851l0,2.96l-11.951,0l0-2.96l2.886-0.851l0-20.609l-2.96-0.925l0-2.96z M230.50983,108.325l0,9.435c0.592,0.259,1.48,0.555,2.886,0.555c3.182,0,4.255-2.22,4.255-5.994c0-3.737-0.999-6.031-3.7-6.031c-2.405,0-3.441,2.035-3.441,2.035z M266.7887,113.431l-12.284,0c0.222,2.96,1.924,4.699,4.477,4.699c3.071,0,6.216-1.739,6.216-1.739l1.591,3.071s-3.7,3.108-8.436,3.108c-6.364,0-9.62-3.7-9.62-9.99c0-6.475,3.663-10.73,9.879-10.73c5.513,0,8.399,3.404,8.399,8.695c0,1.406-0.222,2.775-0.222,2.886z M254.5787,109.99l6.697,0c0-2.109-0.888-3.7-3.034-3.7c-2.072,0-3.367,1.517-3.663,3.7z M285.86257,122.2l-0.333-1.961c-0.518,0.518-2.405,2.331-5.587,2.331c-5.18,0-7.585-3.774-7.585-9.879c0-6.956,3.33-10.841,10.101-10.841c0.888,0,1.961,0.185,2.775,0.37l0-4.699l-2.96-0.74l0-2.96l8.51-0.296l0,24.716l2.96,0.74l0,2.96z M285.23357,116.021l0-9.176c-0.703-0.333-1.813-0.555-2.886-0.555c-3.145,0-4.255,2.405-4.255,6.105c0,3.737,1.036,5.735,3.552,5.735c2.368,0,3.589-2.109,3.589-2.109z M300.64444,96.115c0-2.109,1.517-3.33,3.182-3.33c1.924,0,3.108,0.999,3.108,3.33c0,2.183-1.591,3.367-3.108,3.367c-1.998,0-3.182-1.184-3.182-3.367z M306.86044,118.315l2.59,0.925l0,2.96l-11.1,0l0-2.96l2.96-0.925l0-12.025l-2.96-0.925l0-2.96l8.51-0.185l0,16.095z M327.04431,122.2l-0.666-2.405s-2.849,2.775-5.994,2.775c-3.589,0-5.772-2.109-5.772-5.809c0-4.366,3.293-6.105,8.917-6.105l2.59,0l0-2.035c0-1.887-0.999-2.701-2.849-2.701c-1.887,0-3.256,0.555-3.256,0.555l-0.555,2.331l-3.33,0l-0.259-5.476s4.477-1.48,8.029-1.48c5.624,0,7.77,1.961,7.77,7.326l0,9.139l2.775,0.666l0,2.96z M326.11931,113.801l-2.109,0c-2.886,0-4.033,0.74-4.033,2.405c0,1.406,0.777,2.22,2.183,2.22c1.961,0,3.959-2.146,3.959-2.146l0-2.479z"/><path fill="#e1e8dc" d=""/></svg>
