
        <svg xmlns="http://www.w3.org/2000/svg" xmlns:xlink="http://www.w3.org/1999/xlink" version="1.1" width="3157.9794092480943" 
        height="956.3714898029059" viewBox="-78.98970462404725 -39.494852312023625 3157.9794092480943 956.3714898029059">
			
			<g transform="scale(7.8989704624047254) translate(10, 10)">
				<defs id="SvgjsDefs1544"><linearGradient id="SvgjsLinearGradient1549"><stop id="SvgjsStop1550" stop-color="#006838" offset="0"></stop><stop id="SvgjsStop1551" stop-color="#96cf24" offset="1"></stop></linearGradient></defs><g id="SvgjsG1545" featureKey="QMusi1-0" transform="matrix(1.4197384066785415,0,0,1.4197384066785415,-27.550802782192378,-19.431298295810873)" fill="url(#SvgjsLinearGradient1549)"><g xmlns="http://www.w3.org/2000/svg"><path d="M34.988,61.24c0.002,0.071,0.032,0.139,0.082,0.189c0.005,0.005,0.01,0.01,0.015,0.014c2.81,2.418,6.511,3.413,10.156,2.73   c0.078-0.014,0.145-0.06,0.188-0.127c0.042-0.067,0.054-0.148,0.033-0.224l-2.659-9.926c-0.027-0.098-0.102-0.173-0.2-0.2   c-0.097-0.026-0.201,0.002-0.273,0.073l-7.26,7.26C35.015,61.084,34.985,61.161,34.988,61.24z"></path><path d="M31.609,48.517c0.034,0.034,0.079,0.06,0.127,0.073l9.918,2.658c0.097,0.025,0.201-0.003,0.273-0.074   c0.072-0.071,0.099-0.176,0.073-0.273l-2.657-9.918c-0.019-0.076-0.073-0.141-0.141-0.176c-0.07-0.038-0.152-0.043-0.226-0.018   c-1.745,0.611-3.283,1.574-4.572,2.863s-2.251,2.826-2.862,4.571c-0.026,0.074-0.02,0.156,0.017,0.226   C31.572,48.474,31.589,48.497,31.609,48.517z"></path><path d="M33.802,60.162c0.05,0.05,0.118,0.08,0.189,0.082c0.078,0.003,0.155-0.027,0.21-0.082l7.26-7.26   c0.073-0.071,0.101-0.175,0.075-0.272c-0.026-0.098-0.102-0.173-0.2-0.2l-9.927-2.66c-0.076-0.021-0.157-0.009-0.224,0.033   c-0.066,0.043-0.113,0.11-0.127,0.188c-0.683,3.645,0.312,7.347,2.73,10.156C33.792,60.152,33.798,60.157,33.802,60.162z"></path><path d="M60.652,15.261c0.001-0.01,0.115-1.083,0.801-1.668c0.406-0.347,0.971-0.482,1.73-0.413l9.627,0.87l0.27-2.988l-9.627-0.87   c-1.958-0.173-3.232,0.511-3.947,1.119c-1.458,1.244-1.77,3.048-1.832,3.601l-1.038,4.375c-4.921-1.235-11.721-1.868-18.479-1.868   c-12.818,0-25.795,2.275-25.795,6.624c0,0,0,0.001,0,0.001h0c0,0.088,0.006,0.176,0.016,0.263l2.984,44.699   c0,3.975,10.519,8.83,22.795,8.83c12.277,0,22.795-4.855,22.793-8.773l2.986-44.756c0.011-0.087,0.016-0.175,0.016-0.263h0   c0,0,0-0.001,0-0.001c0-1.566-1.689-2.862-4.441-3.88l1.105-4.658L60.652,15.261z M26.284,57.013   c-1.767,0.171-3.562-0.627-4.569-2.234c-1.066-1.701-0.943-3.809,0.145-5.354c1.865-0.305,3.816,0.504,4.881,2.206   c1.006,1.607,0.941,3.571,0.016,5.086c-1.176-1.827-2.358-3.535-3.503-5.066C24.132,53.348,25.154,55.157,26.284,57.013z    M53.798,31.251l-0.874,3.686c-1.808,0.321-3.888,0.586-6.181,0.776c-0.041-1.278-0.708-2.51-1.893-3.199l-3.271-1.903   c0.078-0.002,0.156-0.003,0.234-0.006c0.018-0.001,0.035-0.001,0.053-0.002c0.586-0.02,1.17-0.046,1.75-0.076   c0.017-0.001,0.035-0.002,0.052-0.003c2.08-0.108,4.102-0.282,6.027-0.511L53.798,31.251z M38.1,36.054   c-0.788,0-1.561-0.011-2.327-0.026l1.619-5.366c0.099,0.001,0.199,0.002,0.298,0.003l6.154,3.58   c0.424,0.246,0.726,0.643,0.851,1.117c0.043,0.163,0.055,0.328,0.053,0.493C42.65,35.982,40.42,36.054,38.1,36.054z M38.74,28.96   l-0.71-0.413l0.038-0.126c0.232-0.768,0.954-1.305,1.755-1.305c0.178,0,0.357,0.027,0.531,0.079l5.033,1.518   C43.324,28.86,41.103,28.947,38.74,28.96z M35.315,30.625l-1.611,5.34C30,35.82,26.635,35.496,23.871,35.04l2.911-5.005   C29.477,30.35,32.372,30.548,35.315,30.625z M27.719,28.426l0.626-1.076c0.328-0.563,0.937-0.913,1.589-0.913   c0.322,0,0.639,0.086,0.92,0.25l3.81,2.217C32.156,28.821,29.83,28.657,27.719,28.426z M29.646,49.861   c0.042-0.235,0.094-0.465,0.147-0.696c0.021-0.091,0.038-0.183,0.061-0.272l-0.003-0.002c0.084-0.334,0.18-0.663,0.29-0.987   l-8.689-5.055c-0.424-0.247-0.727-0.643-0.852-1.117c-0.125-0.475-0.058-0.969,0.188-1.392l1.766-3.035   c2.809,0.546,6.391,0.945,10.405,1.131l-1.145,3.796c-0.229,0.757-0.213,1.547,0.027,2.284c0.6-0.864,1.302-1.649,2.082-2.351   l1.102-3.653c1.006,0.027,2.032,0.042,3.077,0.042c1.876,0,3.696-0.046,5.434-0.131l-0.153,0.264   c0.743,0.021,1.471,0.095,2.18,0.231l0.374-0.642c2.345-0.173,4.495-0.422,6.37-0.73l-1.336,5.633   c-0.014-0.052-0.024-0.108-0.068-0.143c-2.81-2.418-6.511-3.413-10.157-2.729c-0.078,0.014-0.145,0.061-0.187,0.126   c-0.042,0.067-0.054,0.148-0.034,0.224l2.66,9.927c0.013,0.049,0.039,0.093,0.073,0.127s0.078,0.06,0.127,0.073   c0.097,0.026,0.201-0.002,0.273-0.073l7.244-7.244l-0.539,2.272l-5.838,5.838c-0.072,0.072-0.099,0.176-0.073,0.274   c0.013,0.049,0.039,0.092,0.073,0.127c0.034,0.034,0.078,0.06,0.127,0.073l3.962,1.062l-0.283,1.192l-3.997-1.071   c-0.097-0.026-0.202,0.002-0.273,0.073c-0.072,0.072-0.099,0.176-0.073,0.273l2.395,8.937l-0.452,1.905   c-0.086,0.362-0.027,0.722,0.131,1.029c-0.987,0.228-2.01,0.361-3.067,0.361c-7.496,0-13.572-6.076-13.572-13.572   C29.421,51.425,29.504,50.633,29.646,49.861z M49.464,62.517c0.765-0.479,1.473-1.042,2.118-1.687   c1.288-1.29,2.251-2.828,2.862-4.573c0.026-0.074,0.02-0.156-0.018-0.226c-0.036-0.066-0.1-0.12-0.176-0.141l-3.022-0.81   l0.283-1.192l3.066,0.822c0.076,0.021,0.157,0.009,0.224-0.034c0.066-0.043,0.113-0.109,0.127-0.187   c0.557-2.966-0.016-5.962-1.545-8.492l0.449-1.894c0.022,0.029,0.047,0.055,0.068,0.085c0.036,0.049,0.067,0.101,0.103,0.15   c0.195,0.271,0.382,0.549,0.557,0.835c1.264,2.059,2.005,4.472,2.005,7.066c0,5.328-3.077,9.925-7.544,12.147L49.464,62.517z    M14.122,24.257c-0.021-0.069-0.057-0.139-0.058-0.206l-0.001-0.013c0.015-2.007,9.397-4.918,24.094-4.918   c7.676,0,13.883,0.796,18.082,1.841l-1.546,6.516c-0.207,0.043-0.398,0.089-0.613,0.131c-0.006,0.001-0.011,0.002-0.017,0.003   c-1.072,0.21-2.244,0.402-3.499,0.573l-9.632-2.906c-0.361-0.109-0.734-0.164-1.109-0.164c-1.561,0-2.968,0.98-3.545,2.412   l-4.419-2.571c-0.585-0.341-1.251-0.521-1.925-0.521c-1.362,0-2.633,0.731-3.317,1.907l-1.058,1.819   c-1.182-0.164-2.285-0.349-3.302-0.548c-0.025-0.005-0.048-0.01-0.073-0.015c-0.542-0.107-1.06-0.218-1.553-0.333   c-0.092-0.022-0.175-0.044-0.266-0.066c-0.411-0.099-0.81-0.199-1.184-0.302c-0.154-0.043-0.291-0.087-0.438-0.13   c-0.286-0.084-0.572-0.168-0.834-0.253c-0.201-0.066-0.381-0.134-0.567-0.201c-0.179-0.064-0.364-0.128-0.528-0.193   c-0.224-0.088-0.423-0.178-0.621-0.267c-0.099-0.045-0.207-0.089-0.299-0.134c-0.214-0.104-0.401-0.208-0.578-0.312   c-0.054-0.031-0.115-0.063-0.165-0.094c-0.175-0.109-0.32-0.218-0.454-0.326c-0.034-0.027-0.075-0.055-0.106-0.082   c-0.116-0.102-0.201-0.202-0.279-0.302c-0.027-0.036-0.063-0.072-0.086-0.107C14.173,24.416,14.149,24.336,14.122,24.257z    M59.252,69.006c0,2.378-9.12,7.131-21.096,7.131c-11.975,0-21.095-4.753-21.097-7.188L14.24,26.694   c0.005,0.003,0.011,0.006,0.016,0.009c2.123,1.368,5.87,2.39,10.376,3.053l-0.838,1.44c-3.026,0.513-5.31,1.184-6.497,1.946   c-0.025-0.015-0.056-0.029-0.08-0.043c-0.638,0.395-0.982,0.815-0.982,1.25c0,0.189,0.071,0.374,0.196,0.556l2.698,28.801   c0,2.322,8.52,6.057,19.031,6.057c0.028,0,0.056-0.001,0.084-0.001s0.056,0.001,0.084,0.001c10.51,0,19.031-3.734,19.031-6.057   l2.75-29.357c0-0.649-0.786-1.262-2.156-1.81c-0.14-0.691-0.464-1.327-0.941-1.843l0.505-2.13c1.882-0.526,3.437-1.15,4.549-1.868   c0.002-0.001,0.004-0.002,0.006-0.004L59.252,69.006z M62.251,24.037l-0.001,0.016c-0.001,0.064-0.036,0.131-0.056,0.197   c-0.027,0.082-0.052,0.165-0.107,0.249c-0.021,0.032-0.054,0.065-0.079,0.098c-0.079,0.103-0.168,0.206-0.287,0.31   c-0.029,0.025-0.066,0.05-0.097,0.075c-0.135,0.11-0.284,0.221-0.462,0.332c-0.049,0.03-0.108,0.06-0.16,0.091   c-0.178,0.104-0.366,0.209-0.581,0.314c-0.095,0.046-0.205,0.091-0.307,0.137c-0.195,0.088-0.391,0.176-0.612,0.263   c-0.17,0.067-0.36,0.133-0.544,0.199c-0.181,0.065-0.355,0.13-0.549,0.194c-0.136,0.045-0.292,0.088-0.435,0.132l1.143-4.819   C61.133,22.568,62.245,23.354,62.251,24.037z"></path></g></g><g id="SvgjsG1546" featureKey="UyNsn2-0" transform="matrix(1.9656961769258205,0,0,1.9656961769258205,105.33166206258682,19.0708081033967)" fill="#111111"><path d="M4.1 8.2 l-1.42 0 l1.3 -2.48 l4.4 0 l4.48 14.28 l-3.44 0 l-0.8 -2.86 l-0.78 0.06 l-2.78 0 l-0.68 -0.06 l-0.82 2.86 l-3.22 0 z M7.84 14.42 l-1.32 -4.76 l-1.4 4.76 l2.72 0 z M15.059999999999999 12.02 l-1.9999 0.000019531 l1.32 -2.46 l3.16 0 l0.26 1.16 c0.30666 -0.36 0.68332 -0.65666 1.13 -0.89 s0.97 -0.35 1.57 -0.35 c0.58666 0 1.1333 0.10334 1.64 0.31 s0.94666 0.52332 1.32 0.94998 s0.66668 0.96332 0.88002 1.61 s0.32 1.4167 0.32 2.31 c0 1.7333 -0.48666 3.0766 -1.46 4.03 s-2.3466 1.43 -4.12 1.43 c-0.33334 0 -0.66668 -0.02 -1 -0.06 l0 4.62 l-3.02 0 l0 -12.66 z M18.08 17.4 c0.33334 0.06666 0.67332 0.10002 1.02 0.10002 c0.74666 0 1.34 -0.22 1.78 -0.66 s0.66 -1.14 0.66 -2.1 c0 -0.73334 -0.15334 -1.34 -0.46 -1.82 s-0.77332 -0.72 -1.4 -0.72 c-0.57334 0 -0.98334 0.20334 -1.23 0.61 s-0.37 0.90332 -0.37 1.49 l0 3.1 z M26.52 12.02 l-1.9999 0.000019531 l1.32 -2.46 l3.16 0 l0.26 1.16 c0.30666 -0.36 0.68332 -0.65666 1.13 -0.89 s0.97 -0.35 1.57 -0.35 c0.58666 0 1.1333 0.10334 1.64 0.31 s0.94666 0.52332 1.32 0.94998 s0.66668 0.96332 0.88002 1.61 s0.32 1.4167 0.32 2.31 c0 1.7333 -0.48666 3.0766 -1.46 4.03 s-2.3466 1.43 -4.12 1.43 c-0.33334 0 -0.66668 -0.02 -1 -0.06 l0 4.62 l-3.02 0 l0 -12.66 z M29.54 17.4 c0.33334 0.06666 0.67332 0.10002 1.02 0.10002 c0.74666 0 1.34 -0.22 1.78 -0.66 s0.66 -1.14 0.66 -2.1 c0 -0.73334 -0.15334 -1.34 -0.46 -1.82 s-0.77332 -0.72 -1.4 -0.72 c-0.57334 0 -0.98334 0.20334 -1.23 0.61 s-0.37 0.90332 -0.37 1.49 l0 3.1 z M41.959999999999994 9.44 c0.69334 0 1.3166 0.096622 1.87 0.28996 s1.0167 0.50668 1.39 0.94002 s0.66 0.99 0.86 1.67 s0.3 1.5 0.3 2.46 l0 0.31 l-0.04 0.63 l-5.6 0 l-0.42 -0.06 c0.01334 0.38666 0.05668 0.69666 0.13002 0.93 s0.18 0.41668 0.32 0.55002 s0.31 0.22668 0.51 0.28002 s0.42666 0.08668 0.68 0.10002 c0.41334 0.02666 0.77 -0.03334 1.07 -0.18 s0.58334 -0.44666 0.85 -0.9 c0.41334 0.13334 0.79334 0.26 1.14 0.38 c0.29334 0.10666 0.56 0.2 0.8 0.28 s0.36 0.11334 0.36 0.1 c-0.48 1 -1.0633 1.73 -1.75 2.19 s-1.51 0.69 -2.47 0.69 c-0.70666 0 -1.3467 -0.09334 -1.92 -0.28 s-1.06 -0.49 -1.46 -0.91 s-0.71 -0.96666 -0.93 -1.64 s-0.33 -1.4967 -0.33 -2.47 c0 -0.94666 0.11 -1.7567 0.33 -2.43 s0.53 -1.2267 0.93 -1.66 s0.88666 -0.75334 1.46 -0.96 s1.2133 -0.31 1.92 -0.31 z M43.059999999999995 13.440000000000001 l0.30004 0.04 c-0.02666 -0.46666 -0.15 -0.83 -0.37 -1.09 s-0.56334 -0.39 -1.03 -0.39 c-0.53334 0 -0.91668 0.13 -1.15 0.39 s-0.37668 0.62334 -0.43002 1.09 c0.06666 -0.01334 0.12666 -0.02334 0.18 -0.03 s0.11334 -0.01 0.18 -0.01 l2.32 0 z M48.75999999999999 12.059999999999999 l-1.24 0 l0 -2.52 l1.24 0 l0 -2.84 l3 0 l0 2.84 l2.48 0 l-1.4 2.52 l-1.18 0 l0.1 0.64 l0 3.14 c0 0.34666 0.02334 0.62666 0.07 0.84 s0.12 0.38 0.22 0.5 s0.22666 0.20334 0.38 0.25 s0.33 0.07 0.53 0.07 c0.14666 0 0.32666 -0.01666 0.54 -0.05 s0.44 -0.07 0.68 -0.11 l0.16 1.34 l0.12 1.2 c-0.38666 0.08 -0.74 0.14 -1.06 0.18 s-0.64666 0.06 -0.98 0.06 c-1.24 0 -2.16 -0.28666 -2.76 -0.86 s-0.9 -1.52 -0.9 -2.84 l0 -4.36 z M58.23999999999999 9.56 l0 10.44 l-3.02 0 l0 -7.22 l0.1 -0.72 l-1.72 0 l1.36 -2.5 l3.28 0 z M58.15999999999999 8.7 l-3 0 l0 -2.72 l3 0 l0 2.72 z M63.87999999999999 17.38 l4.58 0 l0 2.62 l-8.46 0 l0 -2.26 l0.33 -0.37 l0.84 -0.94 l1.13 -1.26 l1.2 -1.33 l1.04 -1.16 l0.68 -0.74 l-0.32 0.1 l-2.32 0 l0 1.1 l-2.5 -0.76 l0 -2.82 l8.26 0 l0 2.36 z M74.13999999999999 9.44 c0.69334 0 1.3166 0.096622 1.87 0.28996 s1.0167 0.50668 1.39 0.94002 s0.66 0.99 0.86 1.67 s0.3 1.5 0.3 2.46 l0 0.31 l-0.04 0.63 l-5.6 0 l-0.42 -0.06 c0.01334 0.38666 0.05668 0.69666 0.13002 0.93 s0.18 0.41668 0.32 0.55002 s0.31 0.22668 0.51 0.28002 s0.42666 0.08668 0.68 0.10002 c0.41334 0.02666 0.77 -0.03334 1.07 -0.18 s0.58334 -0.44666 0.85 -0.9 c0.41334 0.13334 0.79334 0.26 1.14 0.38 c0.29334 0.10666 0.56 0.2 0.8 0.28 s0.36 0.11334 0.36 0.1 c-0.48 1 -1.0633 1.73 -1.75 2.19 s-1.51 0.69 -2.47 0.69 c-0.70666 0 -1.3467 -0.09334 -1.92 -0.28 s-1.06 -0.49 -1.46 -0.91 s-0.71 -0.96666 -0.93 -1.64 s-0.33 -1.4967 -0.33 -2.47 c0 -0.94666 0.11 -1.7567 0.33 -2.43 s0.53 -1.2267 0.93 -1.66 s0.88666 -0.75334 1.46 -0.96 s1.2133 -0.31 1.92 -0.31 z M75.24 13.440000000000001 l0.30004 0.04 c-0.02666 -0.46666 -0.15 -0.83 -0.37 -1.09 s-0.56334 -0.39 -1.03 -0.39 c-0.53334 0 -0.91668 0.13 -1.15 0.39 s-0.37668 0.62334 -0.43002 1.09 c0.06666 -0.01334 0.12666 -0.02334 0.18 -0.03 s0.11334 -0.01 0.18 -0.01 l2.32 0 z M83.75999999999999 9.92 c0.16 -0.10666 0.38332 -0.21 0.66998 -0.31 s0.61 -0.15 0.97 -0.15 c0.30666 0 0.55666 0.01334 0.75 0.04 s0.29 0.03332 0.29 0.01998 l0 2.66 c-0.30666 -0.02666 -0.60666 -0.03332 -0.9 -0.01998 c-0.25334 0.02666 -0.51668 0.07 -0.79002 0.13 s-0.52334 0.17 -0.75 0.33 c-0.26666 0.18666 -0.45666 0.44 -0.57 0.76 s-0.17 0.76 -0.17 1.32 l0 5.32 l-3 0 l0 -7.94 l-1.62 0 l1.28 -2.54 l3.34 0 l0 0.78 c0.06666 -0.05334 0.12666 -0.10668 0.18 -0.16002 c0.05334 -0.04 0.10668 -0.08334 0.16002 -0.13 s0.10668 -0.08332 0.16002 -0.10998 z M88.37999999999998 5.74 c1.28 -0.12 2.5734 -0.18004 3.88 -0.18004 c0.68 0 1.3633 0.06666 2.05 0.2 s1.3067 0.38668 1.86 0.76002 s1.0067 0.89334 1.36 1.56 s0.53 1.5267 0.53 2.58 s-0.17666 1.91 -0.53 2.57 s-0.80668 1.1767 -1.36 1.55 s-1.17 0.62668 -1.85 0.76002 s-1.3533 0.2 -2.02 0.2 c-0.09334 0 -0.2 -0.0033398 -0.32 -0.01 s-0.23334 -0.01666 -0.34 -0.03 l0 4.3 l-3.26 0 l0 -14.26 z M91.63999999999999 12.48 l-0.08 0.44 c0.41334 0.05334 0.81 0.05 1.19 -0.01 s0.71334 -0.18 1 -0.36 s0.51666 -0.42334 0.69 -0.73 s0.26 -0.68 0.26 -1.12 s-0.06666 -0.81 -0.2 -1.11 s-0.31 -0.54 -0.53 -0.72 s-0.47 -0.31 -0.75 -0.39 s-0.57334 -0.12 -0.88 -0.12 l-0.28 0 l-0.42 0.04 l0 4.08 z M103.79999999999998 9.44 c0.69334 0 1.3166 0.096622 1.87 0.28996 s1.0167 0.50668 1.39 0.94002 s0.66 0.99 0.86 1.67 s0.3 1.5 0.3 2.46 l0 0.31 l-0.04 0.63 l-5.6 0 l-0.42 -0.06 c0.01334 0.38666 0.05668 0.69666 0.13002 0.93 s0.18 0.41668 0.32 0.55002 s0.31 0.22668 0.51 0.28002 s0.42666 0.08668 0.68 0.10002 c0.41334 0.02666 0.77 -0.03334 1.07 -0.18 s0.58334 -0.44666 0.85 -0.9 c0.41334 0.13334 0.79334 0.26 1.14 0.38 c0.29334 0.10666 0.56 0.2 0.8 0.28 s0.36 0.11334 0.36 0.1 c-0.48 1 -1.0633 1.73 -1.75 2.19 s-1.51 0.69 -2.47 0.69 c-0.70666 0 -1.3467 -0.09334 -1.92 -0.28 s-1.06 -0.49 -1.46 -0.91 s-0.71 -0.96666 -0.93 -1.64 s-0.33 -1.4967 -0.33 -2.47 c0 -0.94666 0.11 -1.7567 0.33 -2.43 s0.53 -1.2267 0.93 -1.66 s0.88666 -0.75334 1.46 -0.96 s1.2133 -0.31 1.92 -0.31 z M104.89999999999999 13.440000000000001 l0.30004 0.04 c-0.02666 -0.46666 -0.15 -0.83 -0.37 -1.09 s-0.56334 -0.39 -1.03 -0.39 c-0.53334 0 -0.91668 0.13 -1.15 0.39 s-0.37668 0.62334 -0.43002 1.09 c0.06666 -0.01334 0.12666 -0.02334 0.18 -0.03 s0.11334 -0.01 0.18 -0.01 l2.32 0 z M118.79999999999998 5.98 l0.000019531 13.74 c-0.48 0.10666 -0.94666 0.18666 -1.4 0.24 s-0.86668 0.09334 -1.24 0.12 s-0.69334 0.04 -0.96 0.04 l-0.54 0 c-0.90666 0 -1.67 -0.14 -2.29 -0.42 s-1.12 -0.66 -1.5 -1.14 s-0.65666 -1.0367 -0.83 -1.67 s-0.26 -1.31 -0.26 -2.03 c0 -0.92 0.11666 -1.71 0.35 -2.37 s0.56 -1.2033 0.98 -1.63 s0.92 -0.74332 1.5 -0.94998 s1.2233 -0.31 1.93 -0.31 c0.12 0 0.25666 0.01 0.41 0.03 s0.3 0.04334 0.44 0.07 s0.27 0.05666 0.39 0.09 s0.21334 0.07 0.28 0.11 l0 -1.18 l0.06 -0.26 l-1.8 0 l1.34 -2.48 l3.14 0 z M114.97999999999998 17.44 c0.2 0 0.39334 -0.0066602 0.58 -0.02 s0.35332 -0.03334 0.49998 -0.06 l0 -5.12 c-0.09334 -0.01334 -0.2 -0.03334 -0.32 -0.06 c-0.10666 -0.02666 -0.23 -0.04666 -0.37 -0.06 s-0.29666 -0.02 -0.47 -0.02 c-0.62666 0 -1.1533 0.21334 -1.58 0.64 s-0.64 1.1333 -0.64 2.12 c0 0.49334 0.06 0.90668 0.18 1.24 s0.28334 0.6 0.49 0.8 s0.45 0.34 0.73 0.42 s0.58 0.12 0.9 0.12 z M124.25999999999998 9.56 l0 10.44 l-3.02 0 l0 -7.22 l0.1 -0.72 l-1.72 0 l1.36 -2.5 l3.28 0 z M124.17999999999998 8.7 l-3 0 l0 -2.72 l3 0 l0 2.72 z M131.51999999999998 15.42 c-0.13334 -0.02666 -0.2733 -0.04338 -0.41996 -0.050038 s-0.27332 -0.01 -0.37998 -0.01 c-0.56 0 -1.0133 0.08666 -1.36 0.26 s-0.52 0.47334 -0.52 0.9 c0 0.26666 0.06334 0.47666 0.19 0.63 s0.28332 0.26668 0.46998 0.34002 s0.38332 0.11668 0.58998 0.13002 s0.38332 0.02 0.52998 0.02 c0.26666 0 0.56666 -0.03334 0.9 -0.1 l0 -2.12 z M130.48 13.219999999999999 c0.10666 0 0.24996 0.0033594 0.42996 0.01002 s0.38334 0.01666 0.61 0.03 c-0.01334 -0.52 -0.19668 -0.85666 -0.55002 -1.01 s-0.81 -0.23 -1.37 -0.23 c-0.30666 0 -0.66 0.03666 -1.06 0.11 s-0.83334 0.18334 -1.3 0.33 l-0.32 -1.1 c-0.04 -0.14666 -0.09666 -0.36 -0.17 -0.64 s-0.12334 -0.5 -0.15 -0.66 c0.66666 -0.22666 1.2967 -0.39 1.89 -0.49 s1.13 -0.15 1.61 -0.15 c1.4133 0 2.5066 0.33666 3.28 1.01 s1.16 1.75 1.16 3.23 l0 5.86 c-0.52 0.14666 -1.12 0.29 -1.8 0.43 s-1.4133 0.21 -2.2 0.21 c-0.69334 0 -1.3233 -0.06 -1.89 -0.18 s-1.0533 -0.32 -1.46 -0.6 s-0.72 -0.64666 -0.94 -1.1 s-0.33 -1.0067 -0.33 -1.66 s0.13666 -1.2 0.41 -1.64 s0.62668 -0.79 1.06 -1.05 s0.92 -0.44334 1.46 -0.55 s1.0833 -0.16 1.63 -0.16 z"></path></g>
			</g>
		</svg>
	